# xmcd
#
# Track frame offsets:
#	150
#	11880
#	27259
#	50846
#	67041
#	86796
#	105153
#	123382
#	141808
#	159131
#	174662
#
# Disc length: 2584 seconds
#
# Revision: 0
# Processed by: cddbd v1.5.1PL0 Copyright (c) Steve Scherf et al.
# Submitted via: dBpowerAMP V4.0
#
DISCID=900a160b
DTITLE=Wade Spencer - The Room
DYEAR=2004
DGENRE=Gospel
TTITLE0=At the End of the Glory Road
TTITLE1=When I Crossed that River
TTITLE2=When God Unfolds A Rose
TTITLE3=I'll Fly Away
TTITLE4=Small Lonely Hill
TTITLE5=Somewhere Around God's Throne
TTITLE6=There Is No Other Way
TTITLE7=Already Out of the Grave
TTITLE8=Where Did the Wind Go?
TTITLE9=Get Down On Your Knees
TTITLE10=Old Ship of Zion
EXTD=Wade Spencer Ministries, Inc.\n2751 Township Road 1087\nPerrysville, OH 44864\nwww.wadespencer.com
EXTT0=
EXTT1=
EXTT2=
EXTT3=
EXTT4=
EXTT5=
EXTT6=
EXTT7=
EXTT8=
EXTT9=
EXTT10=
PLAYORDER=
